<svg width="81" height="81" viewBox="0 0 81 81" fill="none" xmlns="http://www.w3.org/2000/svg">
<path id="Arrow 1" opacity="0.5" d="M8.53553 1.46447C6.58291 -0.488155 3.41709 -0.488155 1.46447 1.46447C-0.488155 3.41709 -0.488155 6.58291 1.46447 8.53553L8.53553 1.46447ZM76 81C78.7614 81 81 78.7614 81 76L81 31C81 28.2386 78.7614 26 76 26C73.2386 26 71 28.2386 71 31V71H31C28.2386 71 26 73.2386 26 76C26 78.7614 28.2386 81 31 81L76 81ZM1.46447 8.53553L72.4645 79.5355L79.5355 72.4645L8.53553 1.46447L1.46447 8.53553Z" fill="white"/>
</svg>
