<svg width="74" height="74" viewBox="0 0 74 74" fill="none" xmlns="http://www.w3.org/2000/svg">
<g id="Icon" opacity="0.6">
<path id="Vector" fill-rule="evenodd" clip-rule="evenodd" d="M63.9175 21.9533L63.4858 21.1825C62.929 20.2504 62.1436 19.4757 61.2041 18.9317L40.515 6.99917C39.5783 6.45573 38.5148 6.16858 37.4317 6.16667H36.5375C35.4543 6.16858 34.3909 6.45573 33.4542 6.99917L12.765 18.9625C11.8307 19.5029 11.0546 20.279 10.5142 21.2133L10.0825 21.9842C9.53906 22.921 9.25191 23.9845 9.25 25.0675V48.9633C9.25191 50.0465 9.53906 51.1099 10.0825 52.0467L10.5142 52.8175C11.0685 53.741 11.8415 54.5139 12.765 55.0683L33.485 67.0008C34.4171 67.5555 35.4836 67.8435 36.5683 67.8333H37.4317C38.5148 67.8315 39.5783 67.5444 40.515 67.0008L61.2041 55.0375C62.1476 54.5093 62.9268 53.7302 63.455 52.7867L63.9175 52.0158C64.4543 51.0763 64.741 50.0147 64.75 48.9325V25.0367C64.7481 23.9536 64.4611 22.8902 63.9175 21.9533ZM36.5375 12.3333H37.4317L55.5 22.755L37 33.4233L18.5 22.755L36.5375 12.3333ZM40.0833 60.125L58.1208 49.7033L58.5833 48.9325V28.0892L40.0833 38.7883V60.125Z" fill="#F2F2F2"/>
</g>
</svg>
